<?xml version="1.0" encoding="UTF-8"?>
<svg id="Layer_2" data-name="Layer 2" xmlns="http://www.w3.org/2000/svg" viewBox="0 0 139.93 149.06">
  <defs>
    <style>
      @font-face {
        font-family: "Somar-Bold";
        src: url("fonts/Somar-Bold.otf");
        font-weight: bold;
        font-style: bold;
      }

      @font-face {
        font-family: "Somar";
        src: url("css/Somar-Regular.otf");
        font-weight: normal;
        font-style: normal;
      }

      .cls-1 {
        fill: #231f20;
      }

      .cls-2 {
        font-family: Somar-Bold, Somar;
        font-size: 22px;
        font-weight: 700;
      }

      .cls-2,
      .cls-3 {
        fill: #0b6d38;
      }

      .cls-4 {
        fill: #fff;
      }

      .cls-5 {
        fill: #b7dbed;
      }
    </style>
  </defs>
  <g id="Layer_1-2" data-name="Layer 1">
    <g>
      <path class="cls-5" d="M42.9,30.65c0-15.34,12.44-27.77,27.78-27.77s27.77,12.43,27.77,27.77-12.43,27.77-27.77,27.77-27.78-12.43-27.78-27.77" />
      <path class="cls-3" d="M70.72,1.09c-25.47,0-46.11,20.65-46.11,46.11s20.64,46.11,46.11,46.11,46.11-20.65,46.11-46.11S96.18,1.09,70.72,1.09M70.68,60.07c-16.18,0-29.3-13.12-29.3-29.3S54.5,1.46,70.68,1.46s29.3,13.12,29.3,29.3-13.12,29.3-29.3,29.3" />
      <path class="cls-4" d="M88.64,60.45s2.5.66,5.12-.81c0,0-.01,1.19.25,1.48.2.22,9.71,9.19,9.71,9.19l-1.93,2.53-13.14-12.24s-.15-.19,0-.16" />
      <path class="cls-4" d="M87.51,61.8s.52,2.65-.56,5.2l1.34.14,3.72,3.37s-2.97,2.64-5.22,3.91c0,0-.19.14-.26,0-.07-.14-2.62-4-2.62-4,0,0-.4,3.42-1.57,4.68v.33s.49-.02.87.14c.37.16.47.3.47.3l2.65,4.12s.12,1.26-.05,1.73c-.16.47-.37,1.45-2.72,2.01,0,0-.19.7,2.48.52,2.62-.18,4.11-2.95,3.46-5.56-.01-.05-.03-.1-.04-.16,0,0,6.07-3.83,8.35-6.88.02-.02.03-.04.04-.06,0,0-9.41-9.18-10.34-9.8" />
      <path class="cls-4" d="M78.5,71.57s.19-.03.22.22c.03.25,3.31,10.18,3.31,10.18,0,0-11.16,4.56-24.59-.64l5.4-16.53s.08-.06.08,0,1.06,3.03,2.84,4.15l-.02.17s-.92.09-1.29,1.25c-.37,1.15-2.3,6.95-2.3,7.14s.35.19.54.24c.19.05,3.08.91,7.05.98,3.97.07,7.56-.63,7.56-.63,0,0-.07-1.55-1.57-2.15l-.09-.23s2.36-1.46,2.88-4.14" />
      <path class="cls-4" d="M56.12,68.7c-3.96-.25-6.49,1.31-6.49,1.31.46-1.11.43-3.22.43-3.22-1.8,1.19-3.46.89-4.05.77-.59-.12-.3.28-.3.28.01.03.03.06.04.1,1.48,3.4-1.89,3.88-1.89,3.88-2.86-.28-2.41-2.72-2.39-3,.02-.28.45-2.46,4.17-3.35,3.72-.89,2.9-.87,3.04-.98.14-.12.73-.68.49-1.01-.23-.33-.68,0-.68,0-.12.05-.54.12-.54.12-4,.61-5.09,1.17-5.09,1.17-4.68,2.5-3.59,6.59-3.59,6.59,1.72,6.28,7.12,3.09,7.12,3.09,3.96,4.06,9.58,6.09,9.58,6.09,0,0,2.72-8.3,2.78-8.55.06-.25,1.34-3.03-2.62-3.28M55.09,72.44c-.22.81-.44,1.76-.66,1.85l-3.5-2.5s1.72-.62,3.5-.37c0,0,.87.22.66,1.03" />
      <path class="cls-4" d="M53.46,65.05c0-1.07.87-1.94,1.94-1.94s1.94.87,1.94,1.94-.87,1.94-1.94,1.94-1.94-.87-1.94-1.94" />
      <path class="cls-4" d="M65.45,86.68c0-1.07.87-1.94,1.94-1.94s1.94.87,1.94,1.94-.87,1.94-1.94,1.94-1.94-.87-1.94-1.94" />
      <path class="cls-4" d="M72.1,86.58c0-1.07.87-1.94,1.94-1.94s1.94.87,1.94,1.94-.87,1.94-1.94,1.94-1.94-.87-1.94-1.94" />
      <path class="cls-4" d="M87.11,41.52l2.43-9.87s.79-.6,2.97-.6c1.99,0,2.99.55,2.99.55l1.52,6.98s-1.87,5.64-4,8.24c-1.63,1.99-5.9-5.3-5.9-5.3" />
      <path class="cls-3" d="M92.32,47.23c-1.93,0-5.13-5.45-5.27-5.68v-.02s2.43-9.92,2.43-9.92h.02s.83-.62,3.01-.62c1.99,0,2.98.54,3.02.56h.03s1.54,7.04,1.54,7.04v.02c-.03.06-1.91,5.68-4.02,8.26-.2.25-.45.37-.75.37M87.18,41.5c.24.4,3.35,5.59,5.13,5.59.25,0,.46-.1.64-.32,2.04-2.49,3.87-7.85,3.98-8.2l-1.51-6.92c-.17-.09-1.15-.53-2.92-.53-1.94,0-2.77.48-2.91.57l-2.41,9.81Z" />
      <path class="cls-3" d="M95.75,31.39s-1.4-.64-3.25-.64-3.23.64-3.23.64l.28.22s1.06-.56,2.96-.56,2.97.53,2.97.53l.27-.19Z" />
      <path class="cls-4" d="M95.66,31.28l-.82-3.88h-.17v.33h-.15v.13h-.11v-.04h-.14v-.19l-.08-.07h-.11v-.37h-.17v.31h-.13l-.07.07v.12h-.13v-.05h-.07v-.16l-.07-.07h-.1v-.36h-.19v.34l-.16.07v.15h-.24v-.17l-.07-.07h-.1v-.36h-.18v.37h-.1l-.1.1v.12h-.21v-.18l-.05-.05h-.12v-.31h-.18v.35h-.09l-.09.09v.12h-.13v.07h-.1v-.12l-.06-.06h-.11v-.31h-.16v.36h-.09l-.08.09v.18h-.13v.03h-.08v-.13h-.18v-.32h-.19l-.78,3.88s1.21-.53,3.13-.53,3.17.53,3.17.53" />
      <path class="cls-3" d="M89.27,31.4l.82-4.07h.32v.32h.18v.1h.08v-.14l.12-.12h.05v-.36h.3v.31h.07l.1.1h0s.09.01.09.01v-.07l.13-.13h.05v-.35h.31v.31h.08l.09.09v.14h.07v-.09l.14-.14h.06v-.37h.32v.36h.06l.11.11v.13h.09v-.12l.16-.07v-.36h.33v.36h.06l.11.11v.12s.06,0,.06,0v-.03l.11-.11h.09v-.31h.31v.37h.07l.11.12v.15h.11v-.09h.15v-.33h.3l.86,4.07-.12-.05s-1.25-.52-3.14-.52-3.09.52-3.1.52l-.12.06ZM90.2,27.47l-.74,3.7c.35-.13,1.46-.49,3.03-.49s2.71.36,3.07.49l-.78-3.7h-.05v.33h-.15v.13h-.25v-.04h-.14v-.23l-.03-.03h-.15v-.36h-.03v.3h-.17l-.03.03v.16h-.27v-.05h-.07v-.21l-.03-.03h-.14v-.36h-.05v.31l-.16.07v.17h-.38v-.21l-.03-.03h-.14v-.36h-.04v.37h-.14l-.06.06v.17h-.34v-.22h-.01s-.16-.01-.16-.01v-.31h-.04v.35h-.13l-.05.05v.16h-.13v.07h-.24v-.16l-.02-.02h-.15v-.31h-.02v.36h-.13l-.04.04v.22h-.13v.03h-.22v-.13h-.18v-.32h-.06Z" />
      <rect class="cls-4" x="92.15" y="30.1" width=".71" height=".65" />
      <path class="cls-3" d="M92.93,30.82h-.85v-.79h.85v.79ZM92.22,30.68h.57v-.51h-.57v.51Z" />
      <path class="cls-4" d="M53.94,41.52l-2.43-9.87s-.79-.6-2.97-.6c-1.99,0-2.99.55-2.99.55l-1.52,6.98s1.87,5.64,4,8.24c1.63,1.99,5.9-5.3,5.9-5.3" />
      <path class="cls-3" d="M48.73,47.23h0c-.29,0-.54-.12-.74-.37-2.11-2.58-4-8.21-4.01-8.26v-.02s1.53-7.02,1.53-7.02h.03s1.03-.57,3.02-.57c2.18,0,2.98.59,3.01.61h.02s0,.04,0,.04l2.43,9.9v.02c-.15.23-3.36,5.68-5.29,5.68M44.11,38.57c.12.36,1.95,5.72,3.98,8.2.18.21.39.32.64.32,1.78,0,4.9-5.18,5.14-5.59l-2.42-9.82c-.13-.09-.96-.57-2.9-.57-1.77,0-2.75.44-2.93.53l-1.51,6.92Z" />
      <path class="cls-3" d="M45.3,31.39s1.4-.64,3.25-.64,3.23.64,3.23.64l-.28.22s-1.06-.56-2.96-.56-2.97.53-2.97.53l-.27-.19Z" />
      <path class="cls-4" d="M45.39,31.28l.82-3.88h.18v.33h.15v.13h.11v-.04h.14v-.19l.07-.07h.11v-.37h.17v.31h.13l.07.07v.12h.13v-.05h.07v-.16l.07-.07h.1v-.36h.19v.34l.16.07v.15h.23v-.17l.07-.07h.1v-.36h.18v.37h.1l.1.1v.12h.21v-.18l.05-.05h.12v-.31h.18v.35h.09l.09.09v.12h.13v.07h.1v-.12l.06-.06h.11v-.31h.17v.36h.09l.08.09v.18h.13v.03h.08v-.13h.18v-.32h.19l.78,3.88s-1.2-.53-3.13-.53-3.16.53-3.16.53" />
      <path class="cls-3" d="M51.78,31.4l-.12-.05s-1.22-.52-3.1-.52-3.12.52-3.14.52l-.12.05.86-4.07h.3v.33h.15v.08h.11v-.15l.12-.12h.07v-.37h.31v.31h.08l.11.11v.04h.06v-.12l.11-.11h.06v-.36h.33v.36l.16.07v.12h.09v-.13l.11-.11h.05v-.36h.32v.37h.05l.14.14v.08h.06v-.13l.09-.09h.08v-.31h.32v.35h.05l.13.13v.07h.09s.1-.11.1-.11h.07v-.31h.3v.36h.05l.12.12v.14h.07v-.1h.18v-.32h.32l.82,4.07ZM48.56,30.68c1.57,0,2.68.36,3.03.49l-.74-3.7h-.06v.32h-.18v.13h-.22v-.03h-.14v-.22l-.04-.05h-.13v-.36h-.02v.31h-.15l-.02.02v.16h-.24v-.07h-.13v-.16l-.05-.05h-.13v-.35h-.04v.31h-.17v.23h-.35v-.17l-.06-.06h-.14v-.37h-.04v.36h-.13l-.03.03v.21h-.37v-.17l-.17-.07v-.31h-.05v.36h-.14l-.03.03v.21h-.07v.05h-.27v-.17l-.03-.03h-.17v-.31h-.03v.36h-.15l-.03.03v.23h-.14v.04h-.25v-.13h-.15v-.33h-.05l-.78,3.7c.36-.13,1.49-.49,3.07-.49" />
      <rect class="cls-4" x="48.19" y="30.1" width=".71" height=".65" />
      <path class="cls-3" d="M48.97,30.82h-.85v-.79h.85v.79ZM48.26,30.68h.57v-.51h-.57v.51Z" />
      <path class="cls-4" d="M81.2,28.27l-21.06.21-11.29,6.01-1.12,11.11s5.45,12.5,24.41,12.73" />
      <path class="cls-3" d="M72.13,58.47c-9.84-.12-15.98-3.59-19.4-6.49-3.72-3.14-5.12-6.3-5.13-6.33v-.04s-.01-.04-.01-.04l1.13-11.19,11.39-6.06h.03l21.06-.21v.28s-21.02.21-21.02.21l-11.19,5.96-1.11,11c.16.34,1.59,3.28,5.05,6.21,3.39,2.86,9.47,6.29,19.22,6.41v.28Z" />
      <path class="cls-4" d="M72.13,58.33s13.77,0,21.66-12.61l-1.25-11.3-11.35-6.16" />
      <path class="cls-3" d="M72.13,58.47v-.28s3.48-.02,7.83-1.57c4.01-1.43,9.63-4.48,13.68-10.93l-1.24-11.18-11.28-6.12.14-.25,11.41,6.19,1.26,11.42-.03.04c-4.1,6.55-9.8,9.65-13.86,11.09-4.4,1.57-7.88,1.58-7.92,1.58" />
      <path class="cls-4" d="M79.85,22.61s-3.04-1.69-9.14-1.69c-6.66,0-9.07,1.83-9.07,1.83l-7.42,30.18c4.61,3.39,10.3,5.4,16.46,5.4s11.88-1.87,16.56-5.48l-7.39-30.25Z" />
      <path class="cls-3" d="M70.68,58.47c-6,0-11.72-1.88-16.54-5.43l-.07-.06.02-.09,7.43-30.23.04-.03c.1-.08,2.53-1.85,9.16-1.85h.02c6.05,0,9.16,1.69,9.19,1.7l.05.03v.06s7.42,30.33,7.42,30.33l-.07.06c-4.75,3.65-10.35,5.51-16.65,5.51M54.38,52.88c4.75,3.48,10.39,5.32,16.3,5.32,6.2,0,11.72-1.81,16.4-5.39l-7.35-30.1c-.43-.22-3.46-1.64-9-1.64h-.02c-6.09,0-8.61,1.54-8.95,1.77l-7.39,30.04Z" />
      <path class="cls-3" d="M80.62,21.97s-4.27-1.97-9.94-1.97-9.88,1.97-9.88,1.97l.85.67s3.24-1.72,9.06-1.72,9.07,1.61,9.07,1.61l.83-.56Z" />
      <path class="cls-4" d="M80.51,21.83l-2.67-12.07h-.54v1.02h-.46v.39h-.34v-.13h-.43v-.59l-.23-.23h-.33v-1.12h-.52v.94h-.38l-.22.22v.38h-.39v-.14h-.22v-.5l-.22-.22h-.3v-1.09h-.57v1.03l-.5.22v.45h-.71v-.53l-.22-.22h-.29v-1.1h-.55v1.12h-.29l-.3.3v.38h-.63v-.54l-.16-.16h-.37v-.94h-.54v1.08h-.28l-.28.28v.36h-.4v.2h-.3v-.36l-.18-.18h-.33v-.94h-.5v1.11h-.28l-.26.26v.56h-.41v.09h-.24v-.41h-.55v-.97h-.57l-2.57,12.14s3.86-1.9,9.73-1.9,9.83,1.83,9.83,1.83" />
      <path class="cls-3" d="M60.75,22.16l2.65-12.54h.83v.97h.55v.32h.37v-.48l.34-.34h.2v-1.11h.78v.94h.25l.26.26v.28h.02v-.2h.4v-.28l.36-.36h.2v-1.08h.82v.93h.29l.25.25v.46h.35v-.3l.38-.38h.21v-1.12h.83v1.1h.21l.3.31v.44h.43v-.4l.5-.22v-1.08h.85v1.1h.22l.3.3v.42h.22v.14h.11v-.3l.3-.3h.3v-.93h.8v1.12h.25l.31.31v.5h.43v.13h.06v-.39h.46v-1.02h.79l2.75,12.46-.26-.12s-3.99-1.81-9.77-1.81-9.63,1.86-9.67,1.88l-.26.13ZM63.63,9.9l-2.48,11.76c.96-.42,4.54-1.8,9.54-1.8s8.66,1.34,9.63,1.73l-2.59-11.69h-.29v1.02h-.46v.38h-.62v-.13h-.43v-.67l-.15-.14h-.41v-1.12h-.23v.94h-.47l-.14.13v.46h-.67v-.14h-.22v-.59l-.13-.13h-.38v-1.1h-.29v.98l-.51.22v.49h-.99v-.61l-.14-.14h-.37v-1.1h-.27v1.12h-.37l-.22.22v.46h-.91v-.62l-.08-.08h-.46v-.94h-.26v1.07h-.36l-.19.19v.44h-.4v.2h-.59v-.45l-.1-.1h-.42v-.94h-.22v1.11h-.36l-.18.18v.65h-.41v.09h-.53v-.41h-.55v-.97h-.32Z" />
      <path class="cls-3" d="M71.96,20.14h-2.47v-2.28h2.47v2.28ZM69.77,19.86h1.9v-1.72h-1.9v1.72Z" />
      <path class="cls-3" d="M79.56,39.52s-3.41-.42-8.84,3.6c0,0-4.65-3.74-8.64-4,0,0,6.98,3.23,7.93,4.64,0,0-1.32,1.62-1.82,1.8,0,0-.77-1.7-1.54-.87,0,0-.47.34-.03.8,0,0,.43.46.74.16l.2.25s-.27.43-.78.54c0,0-1.01-.54-1.03.65,0,0,.59,1.29,2.52-.38,0,0,.87,1.06,1.51.87,0,0,1.2-.37.21-1.19,0,0-.33-.31-.82.29l-.4-.34s1.79-1.67,1.92-1.77c.12-.1,1.86,1.76,1.86,1.76l-.25.33s-.7-.74-1.21.17c0,0,.19,1.47,1.43.49l.62-.57s1.43,1.45,2.24.85c0,0,.62-.54.19-.97,0,0-.34-.47-.84-.13,0,0-.35.08-.92-.54l.28-.3s.6.49.92-.32c0,0,.26-.74-.92-.73,0,0-.38.17-.76,1.05l-1.8-1.76s2.43-2.59,8.04-4.37" />
      <path class="cls-3" d="M70.46,33.67s-.55.68-.39,1.53c0,0-1.11-1.15-.25-2.44,0,0-.86.11-1.18,1.87,0,0-.61-1.47.47-2.77,0,0-1.15.71-1.45,1.7,0,0-.09-1.77,1.49-2.44,0,0-.88-.02-1.39.36,0,0,.46-1.38,2.25-.98,0,0-.65-.83-1.08-.81,0,0,1.17-.15,1.73.42,0,0-.06-.48.26-.75,0,0,.32.65.51.78,0,0,.73-.55,1.4-.36,0,0-.64.45-.74.73,0,0,1.84-.05,2.12,1.31,0,0-1.08-.79-1.66-.58,0,0,1.64.6,1.81,2.41,0,0-1.05-1.56-1.61-1.65,0,0,.98,1.63.4,2.61,0,0-.41-1.76-.93-2.02,0,0,.24,1.96-.38,2.58,0,0-.24-1.4-.72-1.6l-.08,5.71c.05.48.18.63.18.63-.05.29-.01.54-.01.54.13.19.14.32.14.32.08.32-.01.54-.01.54.11.32.34.56.34.56l-1.92.07c.16-.1.39-.78.39-.78-.11-.35.13-.84.13-.84-.01-.32.25-1.07.25-1.07l-.05-5.61Z" />
      <path class="cls-1" d="M70.68,58.8c-15.52,0-28.15-12.63-28.15-28.15S55.16,2.5,70.68,2.5s28.15,12.63,28.15,28.15-12.63,28.15-28.15,28.15M70.68,3.25c-15.11,0-27.4,12.29-27.4,27.4s12.29,27.4,27.4,27.4,27.4-12.29,27.4-27.4S85.79,3.25,70.68,3.25" />
      <path class="cls-1" d="M70.72,94.32c-12.6,0-24.44-4.91-33.35-13.81-8.91-8.91-13.81-20.75-13.81-33.35s4.9-24.44,13.81-33.35C46.27,4.91,58.12,0,70.72,0s24.44,4.91,33.35,13.81c8.91,8.91,13.81,20.75,13.81,33.35s-4.9,24.44-13.81,33.35c-8.91,8.91-20.75,13.81-33.35,13.81M70.72,1.12c-25.39,0-46.04,20.65-46.04,46.04s20.65,46.04,46.04,46.04,46.04-20.65,46.04-46.04S96.1,1.12,70.72,1.12" />
    </g>
    <path class="cls-3" d="M8.78,117.34c-1.2.31-3.12.47-4.52.47-2.93,0-4.26-1.41-4.26-4.28v-5.49l1.73-1.84v7.21c0,1.88.78,2.75,2.62,2.75.99,0,1.92-.06,2.69-.19v-8.06l1.74-.25v3.51c2.23-3.74,4.73-4.61,6.05-4.61,2.25,0,3.97,1.38,3.97,4.42,0,1.61-.43,2.73-1.14,3.43v-.02c-.17.21-.39.39-.66.54-.45.25-1.1.5-1.96.5h-4.07c-.68,0-1.43-.1-2.19-.23v2.15ZM14.79,113.73c1.49,0,2.19-1.01,2.19-2.77,0-1.88-.79-2.73-2.11-2.73-.1,0-.19,0-.35.02-1.45.21-3.82,2.02-5.21,5.35.52.08,1.1.14,1.55.14h3.93ZM13.59,104.93v-2.11h1.76v2.11h-1.76ZM23.38,115.42c-.95,0-2.27-.33-2.27-2.66v-9.57l1.74-.25v9.71c0,.99.35,1.09.72,1.09h1.96l.17,1.69h-2.33ZM24.82,119.56v-2.02h1.55v2.02h-1.55ZM25.36,113.73c1.53,0,2.09-.76,2.09-2.25v-4.52l1.74-.27v5.1c0,2.38-1.16,3.62-3.66,3.62l-.17-1.69ZM27.24,119.56v-2.02h1.53v2.02h-1.53ZM30.53,117.39c.19,0,1.01.06,1.2.06,1.8,0,2.58-.87,2.58-2.75v-5.72l1.74-.27v4.5c.7.39,1.45.52,2.07.52h.45l.16,1.69h-.52c-.72,0-1.43-.12-2.15-.37-.08,2.71-1.41,4.05-4.26,4.05h-.5l-.76-1.71ZM38.41,113.73c1.53,0,2.09-.76,2.09-2.25v-8.3l1.74-.25v8.86c0,2.38-1.16,3.62-3.66,3.62l-.17-1.69ZM44.43,115.42v-12.23l1.73-.25v12.48h-1.73ZM57.66,114.1c-.45.08-.81.12-1.22.12-1.98,0-3.39-.97-3.39-3.59s1.61-3.76,3.51-3.76c1.03,0,1.73.14,2.83.47v6.4h2.05l.12,1.69h-3.9v-1.32ZM54.46,104.93v-2.04h1.55v2.04h-1.55ZM57.66,108.71c-.31-.08-.52-.08-.81-.08h-.29c-.95,0-1.69.48-1.69,2s.66,1.82,1.57,1.82c.39,0,.79-.06,1.22-.16v-3.59ZM56.88,104.93v-2.04h1.53v2.04h-1.53ZM61.2,113.73h4.42c-1.49-.72-2.56-1.94-2.56-3.93,0-2.44,1.92-3.43,3.43-3.43,2.42,0,3.61,1.55,3.61,3.55,0,1.73-.66,2.75-1.07,3.37.64.23,1.4.45,2.5.45l.16,1.69h-.56c-.91,0-2.19-.33-3.29-.7-.47.37-1.12.7-1.92.7h-4.54l-.17-1.69ZM64.38,104.6v-2.04h1.55v2.04h-1.55ZM68.3,109.99c0-1.38-.62-1.96-1.8-1.96-.85,0-1.71.48-1.71,1.76,0,1.38.95,2.35,2.58,2.98.33-.48.93-1.34.93-2.79ZM66.81,104.6v-2.04h1.55v2.04h-1.55ZM71.54,115.42l-.17-1.69h2.27v-9.92l1.74-.27v6.82c1.94-3.02,4.54-3.82,5.62-3.82,2.23,0,3.92,1.38,3.92,4.42,0,1.18-.23,2.09-.64,2.77h1.9l.16,1.69h-14.79ZM80.9,113.73c1.49,0,2.17-1.01,2.17-2.77,0-1.88-.78-2.73-2.09-2.73s-4.11,1.9-5.62,5.5h5.54ZM91.68,115.42c-.95,0-1.96-.17-2.95-.72-.64.48-1.53.72-2.56.72l-.12-1.69c1.53,0,2.04-.76,2.04-2.25v-4.52l1.74-.27v5.1c0,.56-.1,1.09-.19,1.47.68.37,1.36.47,1.96.47h.45l.17,1.69h-.54ZM88.09,104.93v-2.11h1.76v2.11h-1.76ZM91.87,113.73h2.44c-.31-.54-.5-1.2-.5-2.11,0-2.58,1.57-3.72,3.62-3.72,2.48,0,3.61,1.53,3.61,3.72,0,2.64-1.22,3.8-3.61,3.8h-5.39l-.17-1.69ZM99.28,111.66c0-1.45-.76-2.13-1.84-2.13s-1.86.68-1.86,2.13.74,2.07,1.76,2.07h.1c1.34,0,1.84-.6,1.84-2.07ZM112.17,114.1c-.45.08-.81.12-1.22.12-1.98,0-3.39-.97-3.39-3.59s1.61-3.76,3.51-3.76c1.03,0,1.73.14,2.83.47v6.4h2.05l.12,1.69h-3.9v-1.32ZM108.97,104.93v-2.04h1.55v2.04h-1.55ZM112.17,108.71c-.31-.08-.52-.08-.81-.08h-.29c-.95,0-1.69.48-1.69,2s.66,1.82,1.57,1.82c.39,0,.79-.06,1.22-.16v-3.59ZM111.4,104.93v-2.04h1.53v2.04h-1.53ZM115.72,113.73c1.53,0,2.09-.76,2.09-2.25v-4.52l1.74-.27v5.1c0,2.38-1.16,3.62-3.66,3.62l-.17-1.69ZM117.79,104.93v-2.11h1.76v2.11h-1.76ZM124.19,115.42c-.95,0-2.27-.33-2.27-2.66v-9.57l1.74-.25v9.71c0,.99.35,1.09.72,1.09h1.96l.17,1.69h-2.33ZM126.17,113.73h2.44c-.31-.54-.5-1.2-.5-2.11,0-2.58,1.57-3.72,3.62-3.72,2.48,0,3.61,1.53,3.61,3.72,0,2.64-1.22,3.8-3.61,3.8h-5.39l-.17-1.69ZM133.57,111.66c0-1.45-.76-2.13-1.84-2.13s-1.86.68-1.86,2.13.74,2.07,1.76,2.07h.1c1.34,0,1.84-.6,1.84-2.07ZM136.35,100.69h.64c-.1-.23-.19-.62-.19-.93,0-1.24.81-1.69,1.53-1.69.56,0,1.05.25,1.47.76l-.54.62c-.37-.31-.68-.56-.93-.56-.37,0-.66.31-.66.87,0,.62.21.93.66.93h1.61l-.45.83h-3.51l.37-.83ZM137.3,115.42v-12.23l1.73-.25v12.48h-1.73Z" />
    <text class="cls-2" transform="translate(31.61 142.26)">
      <tspan x="0" y="0">قطاع الوسط</tspan>
    </text>
  </g>
</svg>