<?xml version="1.0" encoding="UTF-8"?>
<svg id="Layer_2" xmlns="http://www.w3.org/2000/svg" version="1.1" viewBox="0 0 139.9 149.1">
  <!-- Generator: Adobe Illustrator 29.7.1, SVG Export Plug-In . SVG Version: 2.1.1 Build 8)  -->
  <defs>
    <style>
      .st0 {
        fill: #231f20;
      }

      .st1 {
        isolation: isolate;
      }

      .st2 {
        fill: #0b6d38;
      }

      .st3 {
        fill: #fff;
      }

      .st4 {
        fill: #b7dbed;
      }
    </style>
  </defs>
  <g id="Layer_1-2">
    <g>
      <path class="st4" d="M42.9,30.6c0-15.3,12.4-27.8,27.8-27.8s27.8,12.4,27.8,27.8-12.4,27.8-27.8,27.8-27.8-12.4-27.8-27.8" />
      <path class="st2" d="M70.7,1.1c-25.5,0-46.1,20.6-46.1,46.1s20.6,46.1,46.1,46.1,46.1-20.7,46.1-46.1S96.2,1.1,70.7,1.1M70.7,60.1c-16.2,0-29.3-13.1-29.3-29.3S54.5,1.5,70.7,1.5s29.3,13.1,29.3,29.3-13.1,29.3-29.3,29.3" />
      <path class="st3" d="M88.6,60.5s2.5.7,5.1-.8c0,0,0,1.2.2,1.5.2.2,9.7,9.2,9.7,9.2l-1.9,2.5-13.1-12.2s-.2-.2,0-.2" />
      <path class="st3" d="M87.5,61.8s.5,2.6-.6,5.2h1.3c0,0,3.7,3.5,3.7,3.5,0,0-3,2.6-5.2,3.9,0,0-.2,0-.3,0s-2.6-4-2.6-4c0,0-.4,3.4-1.6,4.7v.3s.5,0,.9,0c.4.2.5.3.5.3l2.7,4.1s0,1.3,0,1.7c-.2.5-.4,1.4-2.7,2,0,0-.2.7,2.5.5,2.6-.2,4.1-2.9,3.5-5.6v-.2s6.1-3.8,8.3-6.9h0s-9.4-9.2-10.3-9.8" />
      <path class="st3" d="M78.5,71.6s.2,0,.2.2,3.3,10.2,3.3,10.2c0,0-11.2,4.6-24.6-.6l5.4-16.5h0s1.1,3,2.8,4.2v.2s-.9,0-1.3,1.2-2.3,6.9-2.3,7.1.3.2.5.2,3.1.9,7,1,7.6-.6,7.6-.6c0,0,0-1.6-1.6-2.2v-.2s2.3-1.5,2.8-4.1" />
      <path class="st3" d="M56.1,68.7c-4-.2-6.5,1.3-6.5,1.3.5-1.1.4-3.2.4-3.2-1.8,1.2-3.5.9-4,.8s-.3.3-.3.3h0c1.5,3.4-1.9,3.9-1.9,3.9-2.9-.3-2.4-2.7-2.4-3s.5-2.5,4.2-3.3c3.7-.9,2.9-.9,3-1s.7-.7.5-1-.7,0-.7,0c0,0-.5,0-.5,0-4,.6-5.1,1.2-5.1,1.2-4.7,2.5-3.6,6.6-3.6,6.6,1.7,6.3,7.1,3.1,7.1,3.1,4,4.1,9.6,6.1,9.6,6.1,0,0,2.7-8.3,2.8-8.6,0-.2,1.3-3-2.6-3.3M55.1,72.4c-.2.8-.4,1.8-.7,1.8l-3.5-2.5s1.7-.6,3.5-.4c0,0,.9.2.7,1" />
      <path class="st3" d="M53.5,65.1c0-1.1.9-1.9,1.9-1.9s1.9.9,1.9,1.9-.9,1.9-1.9,1.9-1.9-.9-1.9-1.9" />
      <path class="st3" d="M65.4,86.7c0-1.1.9-1.9,1.9-1.9s1.9.9,1.9,1.9-.9,1.9-1.9,1.9-1.9-.9-1.9-1.9" />
      <path class="st3" d="M72.1,86.6c0-1.1.9-1.9,1.9-1.9s1.9.9,1.9,1.9-.9,1.9-1.9,1.9-1.9-.9-1.9-1.9" />
      <path class="st3" d="M87.1,41.5l2.4-9.9s.8-.6,3-.6,3,.5,3,.5l1.5,7s-1.9,5.6-4,8.2c-1.6,2-5.9-5.3-5.9-5.3" />
      <path class="st2" d="M92.3,47.2c-1.9,0-5.1-5.5-5.3-5.7h0l2.4-9.9h0s.8-.6,3-.6,3,.5,3,.6h0l1.5,7h0s-1.9,5.7-4,8.3c-.2.2-.4.4-.8.4M87.2,41.5c.2.4,3.3,5.6,5.1,5.6s.5,0,.6-.3c2-2.5,3.9-7.8,4-8.2l-1.5-6.9c-.2,0-1.2-.5-2.9-.5s-2.8.5-2.9.6l-2.4,9.8h0Z" />
      <path class="st2" d="M95.8,31.4s-1.4-.6-3.2-.6-3.2.6-3.2.6l.3.2s1.1-.6,3-.6,3,.5,3,.5l.3-.2h-.2Z" />
      <path class="st3" d="M95.7,31.3l-.8-3.9h-.2v.3h-.2c0,.1,0,.1,0,.1h0v-.2h0v-.4h-.2v.3h-.2v.2h0v-.2h0v-.4h-.2v.3h-.2v.2h-.2v-.2h0v-.4h-.2v.4h-.2v.2h-.2v-.2h0v-.3h-.2v.4h-.2v.2h0v-.2h0v-.3h-.2v.4h-.2v.3h0c0-.1-.2-.1-.2-.1v-.3h-.2l-.8,3.9s1.2-.5,3.1-.5,3.2.5,3.2.5" />
      <path class="st2" d="M89.3,31.4l.8-4.1h.3v.3h.2v-.2h0v-.4h.3v.3h.2c0,.1,0-.1,0-.1h0v-.4h.3v.3h.2v.2h0v-.2h0v-.4h.3v.4h.2v.2h0c0-.1.2-.2.2-.2v-.4h.3v.4h.2v.2h0v-.4h.3v.4h.2v.3h.3v-.3h.3l.9,4.1h0s-1.2-.6-3.1-.6-3.1.5-3.1.5h0,.5ZM90.2,27.5l-.7,3.7c.3-.1,1.5-.5,3-.5s2.7.4,3.1.5l-.8-3.7h0v.3h-.2c0,.1-.2.1-.2.1h0v-.2h-.2v-.4h0v.3h-.2v.2h-.3v-.2h0v-.4h0v.3h-.2v.2h-.4v-.2h0v-.4h0v.4h-.2v.2h-.3v-.2h-.2v-.3h0v.4h-.2v.2h-.3v-.2h-.2v-.3h0v.4h-.2v.3h-.3c0-.1-.2-.1-.2-.1v-.3h-.5Z" />
      <rect class="st3" x="92.2" y="30.1" width=".7" height=".6" />
      <path class="st2" d="M92.9,30.8h-.8v-.8h.8v.8ZM92.2,30.7h.6v-.5h-.6v.5Z" />
      <path class="st3" d="M53.9,41.5l-2.4-9.9s-.8-.6-3-.6-3,.5-3,.5l-1.5,7s1.9,5.6,4,8.2c1.6,2,5.9-5.3,5.9-5.3" />
      <path class="st2" d="M48.7,47.2h0c-.3,0-.5,0-.7-.4-2.1-2.6-4-8.2-4-8.3h0l1.5-7h0s1-.6,3-.6,3,.6,3,.6h0l2.4,9.9h0c-.2.2-3.4,5.7-5.3,5.7M44.1,38.6c0,.4,2,5.7,4,8.2.2.2.4.3.6.3,1.8,0,4.9-5.2,5.1-5.6l-2.4-9.8c0,0-1-.6-2.9-.6s-2.8.4-2.9.5l-1.5,6.9h0Z" />
      <path class="st2" d="M45.3,31.4s1.4-.6,3.2-.6,3.2.6,3.2.6l-.3.2s-1.1-.6-3-.6-3,.5-3,.5l-.3-.2h.2Z" />
      <path class="st3" d="M45.4,31.3l.8-3.9h.2v.3h.2c0,.1,0,.1,0,.1h0v-.2h0v-.4h.2v.3h.2v.2h0v-.2h0v-.4h.2v.3h.2v.2h.2v-.2h0v-.4h.2v.4h.2v.2h.2v-.2h0v-.3h.2v.4h.2v.2h0v-.2h0v-.3h.2v.4h.2v.3h0c0-.1.2-.1.2-.1v-.3h.2l.8,3.9s-1.2-.5-3.1-.5-3.2.5-3.2.5" />
      <path class="st2" d="M51.8,31.4h0s-1.2-.6-3.1-.6-3.1.5-3.1.5h0l.9-4h.3v.3h.3c0-.1,0-.3,0-.3h0v-.4h.3v.3h.2v.2h0c0-.1,0-.2,0-.2h0v-.4h.3v.4h.2v.2h0c0-.1,0-.2,0-.2h0v-.4h.3v.4h.2v.2h0v-.2h0v-.3h.3v.4h.2v.2h.2v-.4h.3v.4h.2v.3h0c0-.1.2-.1.2-.1v-.3h.3l.8,4.1h.6ZM48.6,30.7c1.6,0,2.7.4,3,.5l-.7-3.7h0v.3h-.2c0,.1-.2.1-.2.1h0v-.2h0v-.4h0v.3h-.2v.2h-.3v-.2h0v-.4h0v.3h-.2v.2h-.3v-.2h0v-.4h0v.4h-.2v.2h-.4v-.2h-.2v-.4h0v.4h-.2v.2h-.3v-.2h-.2v-.3h0v.4h-.2v.3h-.3c0-.1-.2-.1-.2-.1v-.3h0l-.8,3.7c.4-.1,1.5-.5,3.1-.5" />
      <rect class="st3" x="48.2" y="30.1" width=".7" height=".6" />
      <path class="st2" d="M49,30.8h-.8v-.8h.8v.8ZM48.3,30.7h.6v-.5h-.6v.5Z" />
      <path class="st3" d="M81.2,28.3l-21.1.2-11.3,6-1.1,11.1s5.5,12.5,24.4,12.7" />
      <path class="st2" d="M72.1,58.5c-9.8,0-16-3.6-19.4-6.5-3.7-3.1-5.1-6.3-5.1-6.3h0l1.1-11.2,11.4-6.1h0l21.1-.2v.3l-21,.2-11.2,6-1.1,11c.2.3,1.6,3.3,5,6.2s9.5,6.3,19.2,6.4v.3h0Z" />
      <path class="st3" d="M72.1,58.3s13.8,0,21.7-12.6l-1.2-11.3-11.3-6.2" />
      <path class="st2" d="M72.1,58.5v-.3s3.5,0,7.8-1.6c4-1.4,9.6-4.5,13.7-10.9l-1.2-11.2-11.3-6.1v-.2c0,0,11.5,6.2,11.5,6.2l1.3,11.4h0c-4.1,6.6-9.8,9.7-13.9,11.1-4.4,1.6-7.9,1.6-7.9,1.6" />
      <path class="st3" d="M79.8,22.6s-3-1.7-9.1-1.7-9.1,1.8-9.1,1.8l-7.4,30.2c4.6,3.4,10.3,5.4,16.5,5.4s11.9-1.9,16.6-5.5l-7.4-30.2h0Z" />
      <path class="st2" d="M70.7,58.5c-6,0-11.7-1.9-16.5-5.4h0v-.2l7.4-30.2h0c0-.1,2.5-1.9,9.2-1.9h0c6.1,0,9.2,1.7,9.2,1.7h0l7.4,30.4h0c-4.8,3.7-10.3,5.6-16.7,5.6M54.4,52.9c4.8,3.5,10.4,5.3,16.3,5.3s11.7-1.8,16.4-5.4l-7.3-30.1c-.4-.2-3.5-1.6-9-1.6h0c-6.1,0-8.6,1.5-9,1.8l-7.4,30h0Z" />
      <path class="st2" d="M80.6,22s-4.3-2-9.9-2-9.9,2-9.9,2l.8.7s3.2-1.7,9.1-1.7,9.1,1.6,9.1,1.6l.8-.6h0Z" />
      <path class="st3" d="M80.5,21.8l-2.7-12.1h-.5v1h-.5v.4h-.3c0-.1-.4-.1-.4-.1v-.6l-.2-.2h-.3v-1.1h-.5v.9h-.4l-.2.2v.4h-.4c0-.1-.2-.1-.2-.1v-.5l-.2-.2h-.3v-1.1h-.6v1l-.5.2v.4h-.7v-.5l-.2-.2h-.3v-1.1h-.6v1.1h-.3l-.3.3v.4h-.6v-.5l-.2-.2h-.4v-.9h-.5v1.1h-.3l-.3.3v.4h-.4v.2h-.3v-.4l-.2-.2h-.3v-.9h-.5v1.1h-.3l-.3.3v.6h-.6v-.4h-.6v-1h-.6l-2.6,12.1s3.9-1.9,9.7-1.9,9.8,1.8,9.8,1.8" />
      <path class="st2" d="M60.8,22.2l2.7-12.5h.8v1h.6v.3h.4v-.5l.3-.3h.2v-1.1h.8v.9h.2l.3.3v.3h0v-.2h.4v-.3l.4-.4h.2v-1.1h.8v.9h.3l.2.2v.5h.3v-.3l.4-.4h.2v-1.1h.8v1.1h.2l.3.3v.4h.4v-.4l.5-.2v-1.1h.8v1.1h.2l.3.3v.4h.2c0,.1,0,.1,0,.1v-.3l.3-.3h.3v-.9h.8v1.1h.2l.3.3v.5h.4c0,.1,0-.3,0-.3h.5v-1h.8l2.8,12.5h-.3c0-.1-4-1.9-9.8-1.9s-9.6,1.9-9.7,1.9h-.3c0,.1.4.2.4.2ZM63.6,9.9l-2.5,11.8c1-.4,4.5-1.8,9.5-1.8s8.7,1.3,9.6,1.7l-2.6-11.7h-.3v1h-.5v.4h-.6c0-.1-.4-.1-.4-.1v-.7h-.2c0-.1-.4-.1-.4-.1v-1.1h-.2v.9h-.6v.6h-.7c0-.1-.2-.1-.2-.1v-.6h0c0-.1-.4-.1-.4-.1v-1.1h-.3v1l-.5.2v.5h-1v-.6h0c0-.1-.4-.1-.4-.1v-1.1h-.3v1.1h-.4l-.2.2v.5h-.9v-.6h-.5v-.9h-.3v1.1h-.4l-.2.2v.4h-.4v.2h-.6v-.4h0c0-.1-.4-.1-.4-.1v-.9h-.2v1.1h-.4l-.2.2v.6h-.9v-.4h-.5v-1h-.3v-.2Z" />
      <path class="st2" d="M72,20.1h-2.5v-2.3h2.5v2.3ZM69.8,19.9h1.9v-1.7h-1.9v1.7Z" />
      <path class="st2" d="M79.6,39.5s-3.4-.4-8.8,3.6c0,0-4.7-3.7-8.6-4,0,0,7,3.2,7.9,4.6,0,0-1.3,1.6-1.8,1.8,0,0-.8-1.7-1.5-.9,0,0-.5.3,0,.8,0,0,.4.5.7.2l.2.2s-.3.4-.8.5c0,0-1-.5-1,.7,0,0,.6,1.3,2.5-.4,0,0,.9,1.1,1.5.9,0,0,1.2-.4.2-1.2,0,0-.3-.3-.8.3l-.4-.3s1.8-1.7,1.9-1.8c0,0,1.9,1.8,1.9,1.8l-.2.3s-.7-.7-1.2.2c0,0,.2,1.5,1.4.5l.6-.6s1.4,1.5,2.2.8c0,0,.6-.5.2-1,0,0-.3-.5-.8,0,0,0-.3,0-.9-.5l.3-.3s.6.5.9-.3c0,0,.3-.7-.9-.7,0,0-.4.2-.8,1l-1.8-1.8s2.4-2.6,8-4.4" />
      <path class="st2" d="M70.5,33.7s-.6.7-.4,1.5c0,0-1.1-1.2-.2-2.4,0,0-.9,0-1.2,1.9,0,0-.6-1.5.5-2.8,0,0-1.2.7-1.4,1.7,0,0,0-1.8,1.5-2.4,0,0-.9,0-1.4.4,0,0,.5-1.4,2.2-1,0,0-.7-.8-1.1-.8,0,0,1.2-.1,1.7.4,0,0,0-.5.3-.8,0,0,.3.6.5.8,0,0,.7-.5,1.4-.4,0,0-.6.5-.7.7,0,0,1.8,0,2.1,1.3,0,0-1.1-.8-1.7-.6,0,0,1.6.6,1.8,2.4,0,0-1.1-1.6-1.6-1.6,0,0,1,1.6.4,2.6,0,0-.4-1.8-.9-2,0,0,.2,2-.4,2.6,0,0-.2-1.4-.7-1.6v6.8c0,.2,0,.3,0,.3v.5c0,.3.3.6.3.6h-1.9c.2,0,.4-.7.4-.7,0-.3,0-.8,0-.8,0-.3.2-1.1.2-1.1v-5.6h0Z" />
      <path class="st0" d="M70.7,58.8c-15.5,0-28.2-12.6-28.2-28.1S55.2,2.5,70.7,2.5s28.2,12.6,28.2,28.1-12.6,28.1-28.2,28.1M70.7,3.2c-15.1,0-27.4,12.3-27.4,27.4s12.3,27.4,27.4,27.4,27.4-12.3,27.4-27.4S85.8,3.2,70.7,3.2" />
      <path class="st0" d="M70.7,94.3c-12.6,0-24.4-4.9-33.3-13.8-8.9-8.9-13.8-20.8-13.8-33.3s4.9-24.4,13.8-33.3C46.3,4.9,58.1,0,70.7,0s24.4,4.9,33.3,13.8c8.9,8.9,13.8,20.8,13.8,33.3s-4.9,24.4-13.8,33.3c-8.9,8.9-20.8,13.8-33.3,13.8M70.7,1.1c-25.4,0-46,20.7-46,46s20.7,46,46,46,46-20.7,46-46S96.1,1.1,70.7,1.1" />
    </g>
    <path class="st2" d="M8.8,117.3c-1.2.3-3.1.5-4.5.5-3,0-4.3-1.4-4.3-4.3v-5.5l1.7-1.8v7.2c0,1.9.8,2.8,2.6,2.8s1.9,0,2.7-.2v-8.1l1.7-.2v3.5c2.2-3.7,4.7-4.6,6.1-4.6,2.2,0,4,1.4,4,4.4s-.4,2.7-1.1,3.4h0c-.2.2-.4.4-.7.5-.5.2-1.1.5-2,.5h-4.1c-.7,0-1.4,0-2.2-.2v2.2h.1ZM14.8,113.7c1.5,0,2.2-1,2.2-2.8s-.8-2.7-2.1-2.7-.2,0-.4,0c-1.4.2-3.8,2-5.2,5.3.5,0,1.1,0,1.6,0h3.9,0ZM13.6,104.9v-2.1h1.8v2.1h-1.8ZM23.4,115.4c-1,0-2.3-.3-2.3-2.7v-9.6l1.7-.2v9.7c0,1,.4,1.1.7,1.1h2l.2,1.7h-2.3ZM24.8,119.6v-2h1.5v2h-1.5ZM25.4,113.7c1.5,0,2.1-.8,2.1-2.2v-4.5l1.7-.3v5.1c0,2.4-1.2,3.6-3.7,3.6l-.2-1.7h.1ZM27.2,119.6v-2h1.5v2h-1.5ZM30.5,117.4h1.2c1.8,0,2.6-.9,2.6-2.8v-5.7l1.7-.3v4.5c.7.4,1.5.5,2.1.5h.5l.2,1.7h-.5c-.7,0-1.4,0-2.2-.4,0,2.7-1.4,4.1-4.3,4.1h-.5l-.8-1.7h0ZM38.4,113.7c1.5,0,2.1-.8,2.1-2.2v-8.3l1.7-.2v8.9c0,2.4-1.2,3.6-3.7,3.6l-.2-1.7h.1ZM44.4,115.4v-12.2l1.7-.2v12.5h-1.7ZM57.7,114.1c-.5,0-.8,0-1.2,0-2,0-3.4-1-3.4-3.6s1.6-3.8,3.5-3.8,1.7,0,2.8.5v6.4h2v1.7c0,0-3.8,0-3.8,0v-1.3h.1ZM54.5,104.9v-2h1.5v2h-1.5ZM57.7,108.7h-1.1c-1,0-1.7.5-1.7,2s.7,1.8,1.6,1.8.8,0,1.2-.2v-3.6h0ZM56.9,104.9v-2h1.5v2h-1.5ZM61.2,113.7h4.4c-1.5-.7-2.6-1.9-2.6-3.9s1.9-3.4,3.4-3.4c2.4,0,3.6,1.6,3.6,3.6s-.7,2.8-1.1,3.4c.6.2,1.4.4,2.5.4l.2,1.7h-.6c-.9,0-2.2-.3-3.3-.7-.5.4-1.1.7-1.9.7h-4.5l-.2-1.7h.1ZM64.4,104.6v-2h1.6v2h-1.6ZM68.3,110c0-1.4-.6-2-1.8-2s-1.7.5-1.7,1.8.9,2.3,2.6,3c.3-.5.9-1.3.9-2.8h0ZM66.8,104.6v-2h1.6v2h-1.6ZM71.5,115.4l-.2-1.7h2.3v-9.9l1.7-.3v6.8c1.9-3,4.5-3.8,5.6-3.8,2.2,0,3.9,1.4,3.9,4.4s-.2,2.1-.6,2.8h1.9l.2,1.7h-14.8ZM80.9,113.7c1.5,0,2.2-1,2.2-2.8s-.8-2.7-2.1-2.7-4.1,1.9-5.6,5.5h5.5ZM91.7,115.4c-.9,0-2-.2-2.9-.7-.6.5-1.5.7-2.6.7v-1.7c1.4,0,1.9-.8,1.9-2.2v-4.5l1.7-.3v5.1c0,.6,0,1.1-.2,1.5.7.4,1.4.5,2,.5h.4l.2,1.7h-.5ZM88.1,104.9v-2.1h1.8v2.1h-1.8ZM91.9,113.7h2.4c-.3-.5-.5-1.2-.5-2.1,0-2.6,1.6-3.7,3.6-3.7s3.6,1.5,3.6,3.7-1.2,3.8-3.6,3.8h-5.4l-.2-1.7h0ZM99.3,111.7c0-1.4-.8-2.1-1.8-2.1s-1.9.7-1.9,2.1.7,2.1,1.8,2.1h0c1.3,0,1.8-.6,1.8-2.1h0ZM112.2,114.1c-.4,0-.8,0-1.2,0-2,0-3.4-1-3.4-3.6s1.6-3.8,3.5-3.8,1.7,0,2.8.5v6.4h2.1v1.7c0,0-3.8,0-3.8,0v-1.3h0ZM109,104.9v-2h1.6v2h-1.6ZM112.2,108.7h-1.1c-.9,0-1.7.5-1.7,2s.7,1.8,1.6,1.8.8,0,1.2-.2v-3.6h0ZM111.4,104.9v-2h1.5v2h-1.5ZM115.7,113.7c1.5,0,2.1-.8,2.1-2.2v-4.5l1.7-.3v5.1c0,2.4-1.2,3.6-3.7,3.6l-.2-1.7h0ZM117.8,104.9v-2.1h1.8v2.1h-1.8ZM124.2,115.4c-.9,0-2.3-.3-2.3-2.7v-9.6l1.7-.2v9.7c0,1,.3,1.1.7,1.1h2l.2,1.7h-2.3,0ZM126.2,113.7h2.4c-.3-.5-.5-1.2-.5-2.1,0-2.6,1.6-3.7,3.6-3.7s3.6,1.5,3.6,3.7-1.2,3.8-3.6,3.8h-5.4l-.2-1.7h0ZM133.6,111.7c0-1.4-.8-2.1-1.8-2.1s-1.9.7-1.9,2.1.7,2.1,1.8,2.1h.1c1.3,0,1.8-.6,1.8-2.1h0ZM136.4,100.7h.6c-.1-.2-.2-.6-.2-.9,0-1.2.8-1.7,1.5-1.7s1.1.2,1.5.8l-.5.6c-.4-.3-.7-.6-.9-.6-.4,0-.7.3-.7.9s.2.9.7.9h1.6l-.4.8h-3.5l.4-.8h-.1ZM137.3,115.4v-12.2l1.7-.2v12.5h-1.7Z" />
    <g class="st1">
      <path class="st2" d="M45,140.3v2h-12.7v-2h1.6v-8.2h2v5c1.1-1.3,2.5-2.3,4.1-2.3,2.6,0,3.9,1.5,3.9,4.6v.9h1.1ZM42,139.4c0-1.8-.9-2.7-2.2-2.7s-2.6.7-3.9,2.3v1.3h6.1v-.9h0Z" />
      <path class="st2" d="M56.3,134.9v4.5c0,1.6-1.3,2.9-2.9,2.9s-1.5-.3-2-.7c-.6.5-1.3.8-2,.8s-1.4-.3-1.9-.8c-.5.5-1.2.7-1.9.7h-.6l-.9-.3v-1.3l.9-.3h.6c.6,0,1-.4,1-.9v-3h2v3c0,.6.4,1,1,1s1-.4,1-1v-3h2v3c0,.6.4.9,1,.9s1-.4,1-1v-4.5h2-.3Z" />
      <path class="st2" d="M65.7,142.3h-.7v.7c0,2.1-2.1,3.5-5.7,2.5v-1.8c2.9.6,3.8-.1,3.8-1.2v-.2h-1.6c-1.8,0-3.2-1.5-3.2-3.3v-.9c0-1.9,1.4-3.3,3.3-3.3h0c1.9,0,3.3,1.4,3.3,3.3v2.3h.7v2h0ZM61.4,140.3h1.6v-2.2c0-.8-.5-1.4-1.3-1.4h0c-.8,0-1.4.6-1.4,1.4v.9c0,.7.6,1.4,1.3,1.4h0Z" />
      <path class="st2" d="M68.8,132.1v8.3c0,1.1-.8,1.9-1.9,1.9h-1.4l-.9-.3v-1.3l.9-.3h.7c.2,0,.6-.2.6-.6v-7.6h2Z" />
      <path class="st2" d="M70.8,142.3v-10.2h2v10.2h-2Z" />
      <path class="st2" d="M79.2,144.2c0,1.8,2.6,2.7,5,1.6v1.8c-3.4,1.6-7,0-7-3.4s.8-2.8,2-3.4c-.8-.6-1.2-1.5-1.2-2.5,0-3.6,3.5-4.6,6.5-3.5v1.8c-2.2-.9-4.3-.3-4.3,1.7s.9,2,2.1,2h2.2v2h-3.2c-1.2,0-2.1.6-2.1,1.9h0Z" />
      <path class="st2" d="M88.4,132.1v7.6c0,.5.3.6.6.6h.7v2h-1.4c-1,0-1.9-.8-1.9-1.9v-8.3h2Z" />
      <path class="st2" d="M102.6,140.3v2h-13.1l-.8-.3v-1.3l.8-.3h1.6v-8.2h2v5c1.1-1.3,2.5-2.3,4.1-2.3,2.6,0,3.9,1.5,3.9,4.6v.9h1.5ZM99.2,139.4c0-1.8-.9-2.7-2.2-2.7s-2.6.7-3.9,2.3v1.3h6.1v-.9h0Z" />
      <path class="st2" d="M110.2,138.1v1.1c0,1.7-1.4,3.1-3.1,3.1h-4.6l-.9-.3v-1.3l.9-.3h1.3c-.3-.4-.5-.9-.5-1.4v-.8c0-1.9,1.5-3.3,3.3-3.3h.2c1.9,0,3.3,1.5,3.3,3.3h0ZM104,132.4c0-.6.5-1.1,1.2-1.1s1.2.5,1.2,1.1-.5,1.2-1.2,1.2-1.2-.5-1.2-1.2ZM108.3,138.1c0-.8-.6-1.4-1.4-1.4h-.2c-.8,0-1.4.6-1.4,1.4v.8c0,.8.6,1.4,1.3,1.4h.3c.7,0,1.3-.6,1.3-1.3v-.9h0ZM107.2,132.4c0-.6.5-1.1,1.2-1.1s1.2.5,1.2,1.1-.5,1.2-1.2,1.2-1.2-.5-1.2-1.2Z" />
    </g>
  </g>
</svg>